<svg width="24" height="24" viewBox="0 0 24 24" fill="none" xmlns="http://www.w3.org/2000/svg">
<path d="M12.0153 0C5.39434 0 0.0273438 5.367 0.0273438 11.987C0.0273438 17.066 3.18534 21.404 7.64534 23.149C7.54034 22.2 7.44634 20.746 7.68634 19.71C7.90534 18.773 9.09234 13.753 9.09234 13.753C9.09234 13.753 8.73334 13.033 8.73334 11.972C8.73334 10.309 9.70034 9.061 10.9013 9.061C11.9253 9.061 12.4193 9.83 12.4193 10.749C12.4193 11.778 11.7663 13.316 11.4273 14.741C11.1423 15.934 12.0273 16.906 13.2023 16.906C15.3303 16.906 16.9703 14.661 16.9703 11.419C16.9703 8.558 14.9073 6.55 11.9623 6.55C8.55234 6.55 6.55334 9.112 6.55334 11.749C6.55334 12.782 6.94734 13.892 7.44234 14.49C7.54134 14.61 7.55434 14.715 7.52734 14.835C7.43734 15.21 7.23434 16.034 7.19334 16.198C7.14034 16.423 7.02134 16.469 6.79234 16.363C5.29734 15.673 4.35934 13.485 4.35934 11.717C4.35934 7.941 7.10734 4.465 12.2793 4.465C16.4373 4.465 19.6713 7.432 19.6713 11.388C19.6713 15.523 17.0643 18.85 13.4383 18.85C12.2243 18.85 11.0843 18.221 10.6803 17.471L9.93134 20.319C9.66234 21.364 8.92734 22.671 8.43334 23.465C9.55634 23.81 10.7393 24 11.9833 24C18.5903 24 23.9683 18.635 23.9683 12.013C23.9683 5.39 18.5903 0.026 11.9833 0.026L12.0153 0Z" fill="white"/>
</svg>
